<?xml version="1.0" standalone="no"?><!DOCTYPE svg PUBLIC "-//W3C//DTD SVG 1.1//EN" "http://www.w3.org/Graphics/SVG/1.1/DTD/svg11.dtd"><svg class="icon" height="512" viewBox="0 0 1024 1024" version="1.1" xmlns="http://www.w3.org/2000/svg"><path d="M960 641.6s6.016-41.792-46.592-58.592l-71.712-10.912s-75.712-4.192-93.216-4.192l-76.512-60.512s-26.304-33.504-142.592-34.304-148.992 0-148.992 0-20.704-3.2-21.504 11.2-7.008 55.008-7.008 55.008-1.888 20.704 8.096 35.104v82.912s16.608 52.608 13.408 67.712l374.784 8-0.608 12.704s9.6-2.4 10.4-23.904-3.104-78.112 68.608-94.016c0 0 101.216-9.6 93.216 108.288 0 0 8.8 7.2 8-13.504 0 0 41.408-9.6 43.808-19.104 2.4-9.6 0-51.008 0-51.008s-1.6-5.696-11.616-10.912z" fill="#231F20" /><path d="M737.312 732.608l9.088 0.192c-6.912-22.304-20.192-18.688-20.192-18.688l-354.496-6.208c0.704 4.704 0.992 8.896 0.992 12.384l358.304 4.608s4.704-0.384 6.304 7.712zM957.6 641.408s3.296-24.384-16.8-41.408h-29.792s-7.2-0.8-7.2 9.6c0.096 10.4 11.2 20.896 53.792 31.808zM708.704 557.6s-57.408-73.312-157.696-70.912c0 0-15.104-1.6-13.504 20.704s4 67.712 4 67.712-1.6 7.616 23.488 7.616 137.792 4 137.792 4 15.392 1.504 5.888-29.088zM511.904 496.8l4.384 73.984s0.384 10.208-17.504 10.208h-68.096s-39.712-11.904-39.712-36.192v-43.008s-1.088-14.912 5.312-15.2c6.4-0.288 107.616 0 107.616 0s7.392 0.8 8 10.208zM566.592 591.104s-2.784-4.384-11.808-3.2-10.592 5.088-10.592 5.088h-10.784s-5.408 0.992-3.616 6.4 7.488 3.2 7.488 3.2l5.088 0.096s13.696 11.616 24.192 2.592c0 0 5.696-5.408 5.696-6.592s7.104-7.296-5.696-7.616zM414.304 586.784s8.8 2.784 8.8 8.096c0 0-1.6 3.712-10.496 2.784 0 0 2.496 8-7.712 7.392l-6.496 0.8s-8.512-3.904-7.2-5.888h-13.088s-6.592-8.992 0-14.016h12s4.8-7.488 14.912-6.912c-0.096 0 5.792-3.2 9.312 7.712z" fill="#FFFFFF" /><path d="M356.992 580.704v81.312s13.888 40.096 11.488 60.096h-26.304s0.8-83.808-70.112-91.808c0 0-94.016-13.312-94.016 82.304 0 0-36.512-18.496-89.888-16.096 0 0-2.208-27.296-18.208-32.896v-23.104s-14.688-10.208-0.704-66.784l3.712-8.608h269.312c-0.096-0.096 14.688 1.216 14.688 15.616z" fill="#231F20" /><path d="M67.904 664.288l18.112 19.104v9.6s-30.592 0-30.592-3.2-4.8 0-4-19.904c0 0-2.112-8 16.512-5.6z" fill="#231F20" /><path d="M72 642.4s-14.496-11.2-0.512-67.712l2.688-4.192s11.808 10.912 16.8 11.712v48.608l-19.008 11.616z" fill="#FFFFFF" /><path d="M334.592 716.512a76.288 76.288 0 1 1-152.576 0 76.288 76.288 0 0 1 152.576 0z" fill="#231F21" /><path d="M316 716.512a57.696 57.696 0 1 1-115.36 0 57.696 57.696 0 0 1 115.36 0z" fill="#FFFFFF" /><path d="M265.312 666.912a50.528 50.528 0 0 0-14.016 0l7.008 28.8 7.008-28.8zM228.096 676.192a43.2 43.2 0 0 0-9.824 9.824l25.312 15.488-15.488-25.312zM208.704 710.112a50.528 50.528 0 0 0 0 14.016l28.8-7.008-28.8-7.008zM217.696 747.392a43.2 43.2 0 0 0 9.824 9.824l15.488-25.216-25.312 15.392zM251.488 767.104a50.528 50.528 0 0 0 14.016 0l-7.008-28.8-7.008 28.8zM289.312 757.088c1.792-1.408 3.616-2.912 5.312-4.512s3.2-3.488 4.512-5.312l-25.312-15.488 15.488 25.312zM308.896 723.296a50.528 50.528 0 0 0 0-14.016l-28.8 7.008 28.8 7.008zM298.912 685.504c-1.408-1.792-2.912-3.616-4.512-5.312s-3.488-3.2-5.312-4.512l-15.488 25.312 25.312-15.488zM915.392 716.512a76.288 76.288 0 1 1-152.576 0 76.288 76.288 0 0 1 152.576 0z" fill="#231F21" /><path d="M896.8 716.512a57.696 57.696 0 1 1-115.36 0 57.696 57.696 0 0 1 115.36 0z" fill="#FFFFFF" /><path d="M846.112 666.912a50.528 50.528 0 0 0-14.016 0l7.008 28.8 7.008-28.8zM808.896 676.192a43.2 43.2 0 0 0-9.824 9.824l25.312 15.488-15.488-25.312zM789.504 710.112a50.528 50.528 0 0 0 0 14.016l28.8-7.008-28.8-7.008zM798.496 747.392c1.408 1.792 2.912 3.616 4.512 5.312s3.488 3.2 5.312 4.512l15.488-25.312-25.312 15.488zM832.288 767.104a50.528 50.528 0 0 0 14.016 0l-7.008-28.8-7.008 28.8zM870.112 757.088c1.792-1.408 3.616-2.912 5.312-4.512s3.2-3.488 4.512-5.312l-25.312-15.488 15.488 25.312zM889.696 723.296a50.528 50.528 0 0 0 0-14.016l-28.8 7.008 28.8 7.008zM879.712 685.504c-1.408-1.792-2.912-3.616-4.512-5.312s-3.488-3.2-5.312-4.512l-15.488 25.312 25.312-15.488z" fill="#231F21" /></svg>