<svg xmlns="http://www.w3.org/2000/svg" xmlns:xlink="http://www.w3.org/1999/xlink" version="1.1" x="0px" y="0px" viewBox="0 45 100 5" enable-background="new 0 0 100 100" xml:space="preserve">
	<defs><style type="text/css">
   
    .str0 {stroke:#FF4470;stroke-width:3}
    .fil0 {fill:#FF4470;fill-rule:nonzero}
   
  </style></defs>

	<g><path  d="M81.766,46.334c-0.645,0-1.351,0.069-2.1,0.206c-2.009,0.367-6.021,1.219-10.629,2.227l-6.813-16.905   c-0.771-1.911-2.988-3.408-5.049-3.408H56.6v-1.286H38.067v1.286h-1.004c-2.122,0-4.182,1.613-4.69,3.672l-3.292,13.331   c-0.206-0.019-0.406-0.052-0.621-0.052h-6.949c-1.426,0-2.654,0.604-3.371,1.659c-0.591,0.869-0.777,1.955-0.546,3.072   c-1.399,0.882-4.162,3.189-4.162,7.65v1h2.163c-0.488,0.995-0.849,2.069-1.047,3.208c-0.083,0.472,0.234,0.921,0.706,1.003   c0.013,0.002,0.025-0.003,0.038-0.001c0.46,0.057,0.886-0.246,0.966-0.705c0.851-4.89,5.077-8.438,10.049-8.438   c5.287,0,9.645,4.043,10.15,9.2h-0.634c-0.501-4.815-4.569-8.567-9.516-8.567c-5.285,0-9.568,4.283-9.568,9.569   c0,5.284,4.284,9.567,9.568,9.567c4.948,0,9.017-3.754,9.516-8.569h0.611c-0.066,0.68-0.175,1.354-0.375,2.006   c-0.136,0.442,0.104,0.903,0.533,1.062c0.015,0.006,0.025,0.018,0.041,0.022c0.085,0.026,0.171,0.039,0.255,0.039   c0.371,0,0.714-0.24,0.829-0.613c0.251-0.818,0.411-1.661,0.481-2.516H61.06c0.071,0.844,0.227,1.675,0.475,2.481   c0.099,0.322,0.396,0.529,0.717,0.529c0.073,0,0.147-0.011,0.221-0.033c0.014-0.004,0.022-0.015,0.036-0.02   c0.371-0.137,0.579-0.536,0.46-0.918c-0.204-0.663-0.334-1.347-0.4-2.04h0.749c0.5,4.815,4.569,8.569,9.516,8.569   c5.285,0,9.568-4.283,9.568-9.567c0-5.286-4.283-9.569-9.568-9.569c-4.946,0-9.014,3.752-9.515,8.567h-0.752   c0.505-5.221,4.916-9.317,10.267-9.317c5.689,0,10.318,4.629,10.318,10.319c0,0.401,0.317,0.722,0.712,0.742   c0.013,0.001,0.024,0.008,0.038,0.008c0.414,0,0.75-0.336,0.75-0.75c0-0.358-0.022-0.71-0.054-1.06   c2.026-0.736,3.064-2.279,3.064-4.61v-5.135C87.662,47.535,84.456,46.334,81.766,46.334z M26.307,67.738   c-2.035,0-3.683-1.65-3.683-3.684s1.648-3.684,3.683-3.684c2.034,0,3.683,1.65,3.683,3.684S28.341,67.738,26.307,67.738z    M72.833,60.371c2.035,0,3.683,1.65,3.683,3.684s-1.648,3.684-3.683,3.684c-2.034,0-3.683-1.65-3.683-3.684   S70.798,60.371,72.833,60.371z M61.065,63.055H38.192c-0.127-1.522-0.544-2.96-1.191-4.268H62.27   C61.616,60.092,61.194,61.531,61.065,63.055z M63.34,50.023l-4.773-3.842l1.39-2.979c0.117-0.25,0.008-0.548-0.242-0.665   c-0.25-0.114-0.547-0.008-0.665,0.242l-3.109,6.668c-0.117,0.25-0.008,0.548,0.242,0.665c0.068,0.032,0.14,0.047,0.211,0.047   c0.188,0,0.369-0.107,0.454-0.289l1.285-2.755l3.958,3.187c-5.143,1.145-10.182,2.283-13.468,3.027   c-0.03-0.09-0.053-0.182-0.095-0.271l-3.557-7.628c-0.024-0.051-0.058-0.094-0.085-0.143l-1.948-4.175   c-0.35-0.75-1.243-1.075-1.994-0.725c-0.75,0.35-1.075,1.243-0.725,1.994l0.984,2.109c-0.925,0.694-1.272,1.963-0.764,3.054   l3.047,6.535c-3.126-0.429-5.301-2.484-7.402-4.473c-1.544-1.461-3.133-2.943-5.056-3.693l3.286-13.306   c0.283-1.146,1.567-2.152,2.749-2.152h1.004v1.306H56.6v-1.306h0.575c1.239,0,2.731,1.007,3.194,2.156l6.687,16.592   C65.834,49.471,64.59,49.746,63.34,50.023z"/><circle class="fil0 str0" cx="26.308" cy="64.055" r="1.324"/><circle class="fil0 str0" cx="72.832" cy="64.055" r="1.324"/></g></svg>