<?xml version="1.0"?>
<svg xmlns="http://www.w3.org/2000/svg" xmlns:xlink="http://www.w3.org/1999/xlink" version="1.1" id="Layer_1" x="0px" y="0px" viewBox="0 0 512 512" style="enable-background:new 0 0 512 512;" xml:space="preserve" width="512px" height="512px" class=""><g><g>
	<g>
		<circle cx="114.376" cy="352.382" r="19.682" data-original="#000000" class="active-path" data-old_color="#000000" fill="#4717F6"/>
	</g>
</g><g>
	<g>
		<circle cx="383.773" cy="352.382" r="19.682" data-original="#000000" class="active-path" data-old_color="#000000" fill="#4717F6"/>
	</g>
</g><g>
	<g>
		<path d="M481.69,284.245v-29.641c0-2.701-0.649-5.363-1.895-7.761l-29.551-56.936c-2.442-4.703-6.954-7.985-12.183-8.857    L337.142,164.23l-57.806-80.173c-3.166-4.392-8.25-6.995-13.665-6.995h-83.812c-9.304,0-16.846,7.543-16.846,16.846v27.678    L53.021,179.823H16.846C7.543,179.823,0,187.366,0,196.67v148.732c0,9.304,7.543,16.846,16.846,16.846h15.301    c1.184,7.94,5.614,14.834,11.909,19.263c-1.55,8.909,1.109,18.414,7.975,25.28l7.936,7.936c6.865,6.865,16.307,9.55,25.29,7.99    c5.206,7.387,13.801,12.221,23.504,12.221h11.223c9.704,0,18.297-4.834,23.503-12.22c8.96,1.553,18.405-1.105,25.291-7.991    l7.936-7.936c6.872-6.871,9.528-16.387,7.986-25.288c6.289-4.43,10.715-11.32,11.898-19.255h104.947    c1.184,7.94,5.614,14.834,11.909,19.263c-1.55,8.91,1.108,18.414,7.975,25.28l7.936,7.936c6.865,6.865,16.307,9.55,25.29,7.99    c5.206,7.387,13.801,12.221,23.504,12.221h11.223c9.704,0,18.297-4.834,23.503-12.22c8.96,1.553,18.405-1.105,25.291-7.991    l7.936-7.936c6.872-6.871,9.528-16.387,7.986-25.288c6.288-4.43,10.716-11.32,11.898-19.255h6.458    c21.806,0,39.545-17.74,39.545-39.545C512,304.076,499.055,288.415,481.69,284.245z M198.705,110.755h58.345l53.637,74.39v30.662    H198.705V110.755z M73.985,206.898l91.028-47.334v56.245H73.985V206.898z M163.233,353.784    c-5.144,1.585-9.336,5.583-11.064,10.894c-0.632,1.946-1.433,3.874-2.379,5.728c-2.54,4.979-2.401,10.778,0.119,15.54    l-1.976,1.976c-4.761-2.521-10.562-2.661-15.542-0.117c-1.851,0.945-3.778,1.744-5.728,2.379    c-5.311,1.726-9.309,5.919-10.893,11.063h-2.797c-1.585-5.144-5.583-9.336-10.893-11.063c-1.951-0.633-3.877-1.434-5.727-2.378    c-4.979-2.542-10.781-2.403-15.543,0.118l-1.976-1.976c2.523-4.763,2.658-10.564,0.118-15.541    c-0.946-1.853-1.745-3.779-2.378-5.724c-1.725-5.312-5.92-9.313-11.065-10.897v-2.795c4.377-1.324,8.286-4.593,10.345-9.071    c0.745-1.623,1.465-4.351,3.098-7.551c2.54-4.981,2.403-10.779-0.118-15.541l1.974-1.974c4.792,2.537,10.591,2.643,15.543,0.118    c1.851-0.945,3.778-1.745,5.728-2.379c5.38-1.749,9.331-5.988,10.893-11.063h2.797c1.563,5.078,5.518,9.315,10.893,11.063    c1.949,0.633,3.876,1.434,5.728,2.379c4.972,2.537,10.773,2.405,15.541-0.119l1.976,1.976c-2.522,4.762-2.659,10.562-0.118,15.541    c2.488,4.874,2.123,6.192,4.05,9.332c0.036,0.058,0.07,0.119,0.107,0.176c2.096,3.321,5.366,5.893,9.286,7.113V353.784z     M421.565,364.68c-0.632,1.945-1.432,3.871-2.378,5.724c-2.54,4.979-2.401,10.778,0.119,15.54l-1.976,1.976    c-4.761-2.521-10.56-2.661-15.542-0.117c-1.851,0.945-3.778,1.744-5.728,2.379c-5.311,1.726-9.309,5.919-10.893,11.063h-2.797    c-1.585-5.144-5.583-9.336-10.893-11.063c-1.951-0.633-3.877-1.434-5.727-2.378c-4.979-2.542-10.779-2.403-15.542,0.118    l-1.976-1.976c2.522-4.763,2.658-10.564,0.118-15.541c-0.946-1.853-1.745-3.78-2.379-5.728c-1.726-5.311-5.92-9.31-11.064-10.894    v-2.797c3.699-1.139,7.087-3.626,9.286-7.113c0.037-0.058,0.071-0.118,0.107-0.176c1.899-3.095,1.579-4.49,4.05-9.332    c2.54-4.981,2.403-10.779-0.118-15.541l1.974-1.974c4.763,2.523,10.564,2.66,15.544,0.117c1.85-0.943,3.776-1.744,5.727-2.378    c5.38-1.749,9.331-5.988,10.893-11.063h2.797c1.563,5.078,5.518,9.315,10.893,11.063c4.152,1.35,5.507,2.434,7.626,3.205    c4.175,1.52,9.268,1.37,13.642-0.946l1.976,1.976c-2.522,4.762-2.659,10.562-0.118,15.541c2.023,3.965,2.168,5.585,3.156,7.688    c2.061,4.386,6.033,7.666,10.285,8.933v2.795h0.002C427.485,355.368,423.291,359.368,421.565,364.68z M447.997,300.002    c0,0.017,0,0.035,0,0.052c-0.07-0.085-0.153-0.162-0.224-0.246c-0.527-0.626-1.074-1.24-1.662-1.828l-7.936-7.936    c-6.618-6.617-15.988-9.602-25.291-7.99c-5.204-7.387-13.801-12.22-23.503-12.22h-11.223c-9.705,0-18.3,4.835-23.505,12.224    c-8.932-1.549-18.393,1.091-25.293,7.993l-7.926,7.926c-6.585,6.585-9.586,16.007-7.98,25.268    c-2.182,1.531-4.334,3.614-5.726,5.311H190.415c-1.386-1.689-3.532-3.769-5.709-5.299c1.459-8.427-0.827-17.302-6.853-24.065    c-0.368-0.412-0.746-0.819-1.139-1.212l-7.936-7.936c-6.762-6.762-16.164-9.573-25.291-7.991    c-5.204-7.387-13.801-12.22-23.503-12.22h-11.223c-9.705,0-18.3,4.835-23.505,12.224c-9.013-1.563-18.446,1.143-25.293,7.993    l-7.926,7.926c-6.694,6.694-9.562,16.138-7.98,25.268c-2.202,1.547-4.349,3.633-5.726,5.311h-4.64v-115.04h6.599v19.138    c0,9.304,7.543,16.846,16.846,16.846h149.821c-1.298,2.388-2.035,5.125-2.035,8.034c0,9.304,7.543,16.846,16.846,16.846h38.913    c9.304,0,16.846-7.543,16.846-16.846c0-2.909-0.738-5.646-2.035-8.034h52.039c9.304,0,16.846-7.543,16.846-16.846v-33.059    l79.839,13.306l23.778,45.814V300.002z M472.455,328.555h-12.643c-1.426-1.74-3.529-3.767-5.708-5.298    c0.525-3.029,0.539-7.07-0.075-10.337c2.926,2.453,6.698,3.93,10.814,3.93h7.611c3.228,0,5.852,2.626,5.852,5.852    C478.307,325.929,475.681,328.555,472.455,328.555z" data-original="#000000" class="active-path" data-old_color="#000000" fill="#4717F6"/>
	</g>
</g></g> </svg>
