<?xml version="1.0"?>
<svg xmlns="http://www.w3.org/2000/svg" height="512px" viewBox="0 -92 512 512" width="512px" class=""><g><path d="m512 207.65625c0-43.265625-35.199219-78.464844-78.464844-78.464844h-.054687l-28.308594-83.894531h-55.214844v-45.296875h-349.957031v281.222656h46.277344c4.058594 26.5 27.011718 46.863282 54.628906 46.863282 27.621094 0 50.574219-20.363282 54.632812-46.863282h202.875c4.0625 26.5 27.011719 46.863282 54.632813 46.863282 27.617187 0 50.570313-20.363282 54.628906-46.863282h44.324219zm-128.375-132.351562 18.054688 53.496093h-51.722657v-53.496093zm-353.617188 28.488281h50.324219v15.503906l-7.191406 3.765625c-11.191406 5.867188-25.09375 5.867188-36.285156 0l-6.847657-3.585938zm80.332032 0h50.324218v15.324219l-7.535156 3.945312c-11.191406 5.867188-25.097656 5.867188-36.289062 0l-6.5-3.40625zm50.324218-30.007813h-50.324218v-43.777344h50.324218zm30.007813-43.777344h50.324219v43.777344h-50.324219zm0 73.785157h50.324219v15.140625l-7.882813 4.132812c-11.1875 5.863282-25.09375 5.863282-36.285156 0l-6.15625-3.226562zm80.332031 0h48.945313v15.683593l-6.84375 3.585938c-11.191407 5.867188-25.097657 5.867188-36.289063 0l-5.8125-3.042969zm48.945313-30.007813h-48.945313v-43.777344h48.945313zm-239.617188-43.777344v43.777344h-50.324219v-43.777344zm20.574219 268.070313c-13.925781 0-25.257812-11.332031-25.257812-25.261719 0-13.925781 11.332031-25.257812 25.257812-25.257812 13.929688 0 25.261719 11.332031 25.261719 25.257812 0 13.929688-11.332031 25.261719-25.261719 25.261719zm50.867188-46.863281c-8.425782-19.773438-28.054688-33.664063-50.867188-33.664063s-42.4375 13.890625-50.867188 33.664063h-20.03125v-98.378906c18.351563 7.027343 39.582032 5.96875 57.0625-3.191407l7.921876-4.152343 7.921874 4.152343c19.78125 10.367188 44.363282 10.367188 64.144532 0l7.921875-4.148437 7.917969 4.148437c9.894531 5.183594 20.984374 7.777344 32.074218 7.777344s22.183594-2.59375 32.070313-7.777344l7.925781-4.152343 7.921875 4.152343c17.480469 9.164063 38.707031 10.222657 57.058594 3.191407v98.378906zm261.273437 46.863281c-13.929687 0-25.261719-11.332031-25.261719-25.261719 0-13.925781 11.332032-25.257812 25.261719-25.257812s25.261719 11.332031 25.261719 25.257812c0 13.929688-11.332032 25.261719-25.261719 25.261719zm50.867187-46.863281c-8.429687-19.773438-28.054687-33.664063-50.867187-33.664063s-42.441406 13.894531-50.867187 33.664063h-12.222657v-92.40625l83.578125.390625c16.882813 0 31.769532 8.683593 40.449219 21.816406h-15v30.007813h23.007813v40.191406zm0 0" data-original="#000000" class="active-path" data-old_color="#000000" fill="#4717F6"/></g> </svg>
