<?xml version="1.0"?>
<svg xmlns="http://www.w3.org/2000/svg" xmlns:xlink="http://www.w3.org/1999/xlink" version="1.1" id="Capa_1" x="0px" y="0px" viewBox="0 0 512 512" style="enable-background:new 0 0 512 512;" xml:space="preserve" width="512px" height="512px"><g><g>
	<g>
		<path d="M256,0C114.844,0,0,114.844,0,256s114.844,256,256,256s256-114.844,256-256S397.156,0,256,0z M266.667,426.126v-20.793    c5.896,0,10.667-4.771,10.667-10.667S272.563,384,266.667,384h-21.333c-5.896,0-10.667,4.771-10.667,10.667    s4.771,10.667,10.667,10.667v20.793c-89.131-5.551-160-79.622-160-170.126c0-94.104,76.563-170.667,170.667-170.667    S426.667,161.896,426.667,256C426.667,346.504,355.798,420.576,266.667,426.126z M424.906,125.406    c-2.01,1.729-4.479,2.573-6.938,2.573c-3,0-5.99-1.26-8.094-3.729c-9.615-11.208-20.479-21.406-32.281-30.292    c-4.708-3.542-5.646-10.229-2.104-14.938c3.542-4.688,10.208-5.667,14.938-2.104c13.031,9.813,25.021,21.073,35.635,33.458    C429.906,114.844,429.385,121.573,424.906,125.406z M469.333,266.667c-5.896,0-10.667-4.771-10.667-10.667    c0-32.063-7.302-62.75-21.708-91.208c-2.656-5.25-0.552-11.667,4.708-14.333c5.24-2.698,11.656-0.563,14.333,4.708    c15.927,31.469,24,65.396,24,100.833C480,261.896,475.229,266.667,469.333,266.667z" data-original="#000000" class="active-path" data-old_color="#000000" fill="#4717F6"/>
	</g>
</g></g> </svg>
