<svg xmlns="http://www.w3.org/2000/svg" xmlns:xlink="http://www.w3.org/1999/xlink" xml:space="preserve" version="1.1" style="shape-rendering:geometricPrecision;text-rendering:geometricPrecision;image-rendering:optimizeQuality;" viewBox="0 0 333 416.25" x="0px" y="0px" fill-rule="evenodd" clip-rule="evenodd"><defs><style type="text/css">
   
    .str0 {stroke:black;stroke-width:3}
    .fil0 {fill:black;fill-rule:nonzero}
   
  </style></defs><g><polygon class="fil0 str0" points="182,159 194,159 194,154 182,154 "/><polygon class="fil0 str0" points="120,158 132,158 132,153 120,153 "/><path class="fil0 str0" d="M94 228c-10,0 -19,-8 -19,-19 0,-10 9,-19 19,-19 11,0 19,9 19,19 0,11 -8,19 -19,19zm0 -46c-15,0 -27,12 -27,27 0,15 12,28 27,28 15,0 27,-13 27,-28 0,-15 -12,-27 -27,-27z"/><path class="fil0 str0" d="M94 199c-5,0 -10,5 -10,10 0,6 5,10 10,10 6,0 10,-4 10,-10 0,-5 -4,-10 -10,-10z"/><path class="fil0 str0" d="M51 104l152 0 20 38c1,1 2,2 4,2l72 6 2 25 -14 18 -7 0c-6,-14 -21,-23 -36,-23 -11,0 -21,4 -29,11 -6,7 -11,15 -12,24l-69 0c-2,-20 -19,-36 -40,-36 -17,0 -31,10 -37,25l-19 -3 13 -87zm-21 90c-1,2 1,4 3,4l26 5c2,0 4,-1 4,-3 4,-14 17,-23 31,-23 18,0 32,14 32,32 0,3 2,4 5,4l76 0c2,0 4,-1 4,-4 0,-8 4,-16 10,-22 6,-6 14,-9 23,-9 13,0 25,8 30,21 0,1 2,2 4,2l12 0c1,0 2,-1 3,-2l15 -20c1,-1 1,-2 1,-3l-2 -31c0,-2 -2,-3 -4,-3l-74 -6 -19 -38c-1,-1 -2,-2 -4,-2l-158 0 0 0c-2,0 -4,1 -4,3l-4 24 -16 0 0 53 8 0 -2 18z"/><path class="fil0 str0" d="M244 229c-11,0 -19,-8 -19,-19 0,-10 8,-19 19,-19 10,0 19,9 19,19 0,11 -9,19 -19,19zm0 -46c-15,0 -28,12 -28,27 0,15 13,27 28,27 15,0 27,-12 27,-27 0,-15 -12,-27 -27,-27z"/><path class="fil0 str0" d="M244 200c-6,0 -10,5 -10,10 0,6 4,10 10,10 5,0 9,-4 9,-10 0,-5 -4,-10 -9,-10z"/><polygon class="fil0 str0" points="95,113 59,113 55,143 95,143 "/><polygon class="fil0 str0" points="147,113 104,113 104,143 147,143 "/><polygon class="fil0 str0" points="198,113 156,113 156,143 211,143 "/></g></svg>